<svg width="38" height="12" viewBox="0 0 38 12" fill="none" xmlns="http://www.w3.org/2000/svg">
<path d="M6.58301 8.68262H2.72754L1.9209 11H0.123047L3.88281 1.04688H5.43457L9.20117 11H7.39648L6.58301 8.68262ZM3.21289 7.28809H6.09766L4.65527 3.15918L3.21289 7.28809ZM16.666 7.37695C16.666 8.52539 16.4085 9.43913 15.8936 10.1182C15.3831 10.7972 14.679 11.1367 13.7812 11.1367C12.9154 11.1367 12.2409 10.8245 11.7578 10.2002L11.6758 11H10.1719V0.5H11.833V4.31445C12.3115 3.74935 12.9564 3.4668 13.7676 3.4668C14.6699 3.4668 15.3786 3.80176 15.8936 4.47168C16.4085 5.1416 16.666 6.07812 16.666 7.28125V7.37695ZM15.0049 7.2334C15.0049 6.43132 14.8636 5.82975 14.5811 5.42871C14.2985 5.02767 13.8883 4.82715 13.3506 4.82715C12.6305 4.82715 12.1247 5.1416 11.833 5.77051V8.81934C12.1292 9.46191 12.6396 9.7832 13.3643 9.7832C13.8838 9.7832 14.2848 9.58952 14.5674 9.20215C14.8499 8.81478 14.9958 8.22917 15.0049 7.44531V7.2334ZM17.7529 7.2334C17.7529 6.50879 17.8965 5.8571 18.1836 5.27832C18.4707 4.69499 18.874 4.24837 19.3936 3.93848C19.9131 3.62402 20.5101 3.4668 21.1846 3.4668C22.1826 3.4668 22.9915 3.78809 23.6113 4.43066C24.2357 5.07324 24.5729 5.92546 24.623 6.9873L24.6299 7.37695C24.6299 8.10612 24.4886 8.75781 24.2061 9.33203C23.9281 9.90625 23.527 10.3506 23.0029 10.665C22.4834 10.9795 21.8818 11.1367 21.1982 11.1367C20.1546 11.1367 19.3184 10.7904 18.6895 10.0977C18.0651 9.40039 17.7529 8.47298 17.7529 7.31543V7.2334ZM19.4141 7.37695C19.4141 8.13802 19.5713 8.73503 19.8857 9.16797C20.2002 9.59635 20.6377 9.81055 21.1982 9.81055C21.7588 9.81055 22.194 9.5918 22.5039 9.1543C22.8184 8.7168 22.9756 8.0765 22.9756 7.2334C22.9756 6.486 22.8138 5.89355 22.4902 5.45605C22.1712 5.01855 21.736 4.7998 21.1846 4.7998C20.6423 4.7998 20.2116 5.01628 19.8926 5.44922C19.5736 5.8776 19.4141 6.52018 19.4141 7.37695ZM30.5156 10.2754C30.028 10.8496 29.3353 11.1367 28.4375 11.1367C27.6354 11.1367 27.027 10.902 26.6123 10.4326C26.2021 9.96322 25.9971 9.28418 25.9971 8.39551V3.60352H27.6582V8.375C27.6582 9.3138 28.0479 9.7832 28.8271 9.7832C29.6338 9.7832 30.1784 9.49382 30.4609 8.91504V3.60352H32.1221V11H30.5566L30.5156 10.2754ZM35.8955 1.80566V3.60352H37.2012V4.83398H35.8955V8.96289C35.8955 9.24544 35.9502 9.45052 36.0596 9.57812C36.1735 9.70117 36.374 9.7627 36.6611 9.7627C36.8525 9.7627 37.0462 9.73991 37.2422 9.69434V10.9795C36.8639 11.0843 36.4993 11.1367 36.1484 11.1367C34.8724 11.1367 34.2344 10.4326 34.2344 9.02441V4.83398H33.0176V3.60352H34.2344V1.80566H35.8955Z" fill="white"/>
</svg>
