<svg width="52" height="14" viewBox="0 0 52 14" fill="none" xmlns="http://www.w3.org/2000/svg">
<path opacity="0.8" d="M4.08789 6.56348C2.96224 6.23991 2.14193 5.84342 1.62695 5.37402C1.11654 4.90007 0.861328 4.31673 0.861328 3.62402C0.861328 2.84017 1.1735 2.19303 1.79785 1.68262C2.42676 1.16764 3.24251 0.910156 4.24512 0.910156C4.92871 0.910156 5.53711 1.04232 6.07031 1.30664C6.60807 1.57096 7.02279 1.93555 7.31445 2.40039C7.61068 2.86523 7.75879 3.37337 7.75879 3.9248H6.43945C6.43945 3.32324 6.24805 2.85156 5.86523 2.50977C5.48242 2.16341 4.94238 1.99023 4.24512 1.99023C3.59798 1.99023 3.09212 2.13379 2.72754 2.4209C2.36751 2.70345 2.1875 3.09766 2.1875 3.60352C2.1875 4.00911 2.3584 4.35319 2.7002 4.63574C3.04655 4.91374 3.63216 5.16895 4.45703 5.40137C5.28646 5.63379 5.93359 5.89128 6.39844 6.17383C6.86784 6.45182 7.21419 6.77767 7.4375 7.15137C7.66536 7.52507 7.7793 7.96484 7.7793 8.4707C7.7793 9.27734 7.46484 9.92448 6.83594 10.4121C6.20703 10.8952 5.36621 11.1367 4.31348 11.1367C3.62988 11.1367 2.99186 11.0068 2.39941 10.7471C1.80697 10.4827 1.34896 10.1227 1.02539 9.66699C0.70638 9.21126 0.546875 8.69401 0.546875 8.11523H1.86621C1.86621 8.7168 2.08724 9.19303 2.5293 9.54395C2.97591 9.8903 3.57064 10.0635 4.31348 10.0635C5.00618 10.0635 5.53711 9.9222 5.90625 9.63965C6.27539 9.3571 6.45996 8.97201 6.45996 8.48438C6.45996 7.99674 6.28906 7.62077 5.94727 7.35645C5.60547 7.08757 4.98568 6.82324 4.08789 6.56348ZM11.6895 9.14746L13.4121 3.60352H14.7656L11.792 12.1416C11.3317 13.3721 10.6003 13.9873 9.59766 13.9873L9.3584 13.9668L8.88672 13.8779V12.8525L9.22852 12.8799C9.6569 12.8799 9.98958 12.7933 10.2266 12.6201C10.4681 12.4469 10.6663 12.1302 10.8213 11.6699L11.1016 10.918L8.46289 3.60352H9.84375L11.6895 9.14746ZM17.2744 11H16.0098V0.5H17.2744V11ZM20.6787 11H19.4141V0.5H20.6787V11ZM27.2754 11C27.2025 10.8542 27.1432 10.5944 27.0977 10.2207C26.5098 10.8314 25.8079 11.1367 24.9922 11.1367C24.263 11.1367 23.6637 10.9316 23.1943 10.5215C22.7295 10.1068 22.4971 9.58268 22.4971 8.94922C22.4971 8.17904 22.7887 7.58203 23.3721 7.1582C23.96 6.72982 24.7848 6.51562 25.8467 6.51562H27.0771V5.93457C27.0771 5.49251 26.945 5.1416 26.6807 4.88184C26.4163 4.61751 26.0267 4.48535 25.5117 4.48535C25.0605 4.48535 24.6823 4.59928 24.377 4.82715C24.0716 5.05501 23.9189 5.33073 23.9189 5.6543H22.6475C22.6475 5.28516 22.7773 4.92969 23.0371 4.58789C23.3014 4.24154 23.6569 3.9681 24.1035 3.76758C24.5547 3.56706 25.0492 3.4668 25.5869 3.4668C26.4391 3.4668 27.1068 3.68099 27.5898 4.10938C28.0729 4.5332 28.3236 5.11882 28.3418 5.86621V9.27051C28.3418 9.94954 28.4284 10.4896 28.6016 10.8906V11H27.2754ZM25.1768 10.0361C25.5732 10.0361 25.9492 9.93359 26.3047 9.72852C26.6602 9.52344 26.9176 9.25684 27.0771 8.92871V7.41113H26.0859C24.5365 7.41113 23.7617 7.86458 23.7617 8.77148C23.7617 9.16797 23.8939 9.47786 24.1582 9.70117C24.4225 9.92448 24.762 10.0361 25.1768 10.0361ZM36.5859 7.38379C36.5859 8.514 36.3262 9.42318 35.8066 10.1113C35.2871 10.7949 34.5898 11.1367 33.7148 11.1367C32.7806 11.1367 32.0583 10.8063 31.5479 10.1455L31.4863 11H30.3242V0.5H31.5889V4.41699C32.0993 3.78353 32.8034 3.4668 33.7012 3.4668C34.599 3.4668 35.3031 3.80632 35.8135 4.48535C36.3285 5.16439 36.5859 6.09408 36.5859 7.27441V7.38379ZM35.3213 7.24023C35.3213 6.37891 35.1549 5.71354 34.8223 5.24414C34.4896 4.77474 34.0111 4.54004 33.3867 4.54004C32.5527 4.54004 31.9535 4.92741 31.5889 5.70215V8.90137C31.9762 9.67611 32.5801 10.0635 33.4004 10.0635C34.0065 10.0635 34.4782 9.82878 34.8154 9.35938C35.1527 8.88997 35.3213 8.18359 35.3213 7.24023ZM42.752 10.2686C42.2598 10.8473 41.5374 11.1367 40.585 11.1367C39.7965 11.1367 39.195 10.9089 38.7803 10.4531C38.3701 9.99284 38.1628 9.3138 38.1582 8.41602V3.60352H39.4229V8.38184C39.4229 9.50293 39.8786 10.0635 40.79 10.0635C41.7562 10.0635 42.3988 9.70345 42.7178 8.9834V3.60352H43.9824V11H42.7793L42.752 10.2686ZM50.2168 9.03809C50.2168 8.69629 50.0869 8.43197 49.8271 8.24512C49.5719 8.05371 49.123 7.88965 48.4805 7.75293C47.8424 7.61621 47.3343 7.45215 46.9561 7.26074C46.5824 7.06934 46.3044 6.84147 46.1221 6.57715C45.9443 6.31283 45.8555 5.99837 45.8555 5.63379C45.8555 5.02767 46.1107 4.51497 46.6211 4.0957C47.1361 3.67643 47.7923 3.4668 48.5898 3.4668C49.4284 3.4668 50.1074 3.68327 50.627 4.11621C51.151 4.54915 51.4131 5.10286 51.4131 5.77734H50.1416C50.1416 5.43099 49.9935 5.13249 49.6973 4.88184C49.4056 4.63118 49.0365 4.50586 48.5898 4.50586C48.1296 4.50586 47.7695 4.60612 47.5098 4.80664C47.25 5.00716 47.1201 5.26921 47.1201 5.59277C47.1201 5.89811 47.2409 6.12826 47.4824 6.2832C47.724 6.43815 48.1592 6.58626 48.7881 6.72754C49.4215 6.86882 49.9342 7.03743 50.3262 7.2334C50.7181 7.42936 51.0075 7.66634 51.1943 7.94434C51.3857 8.21777 51.4814 8.55273 51.4814 8.94922C51.4814 9.61003 51.2171 10.141 50.6885 10.542C50.1598 10.9385 49.474 11.1367 48.6309 11.1367C48.0384 11.1367 47.5143 11.0319 47.0586 10.8223C46.6029 10.6126 46.2451 10.321 45.9854 9.94727C45.7301 9.56901 45.6025 9.16113 45.6025 8.72363H46.8672C46.89 9.14746 47.0586 9.4847 47.373 9.73535C47.6921 9.98145 48.1113 10.1045 48.6309 10.1045C49.1094 10.1045 49.4922 10.0088 49.7793 9.81738C50.071 9.62142 50.2168 9.36165 50.2168 9.03809Z" fill="white"/>
</svg>
