<svg width="24" height="13" viewBox="0 0 24 13" fill="none" xmlns="http://www.w3.org/2000/svg">
<path opacity="0.8" d="M5.64453 6.60449H1.46777V11H0.155273V1.04688H6.32129V2.12695H1.46777V5.53125H5.64453V6.60449ZM12.2275 8.40234H8.05762L7.12109 11H5.76758L9.56836 1.04688H10.7168L14.5244 11H13.1777L12.2275 8.40234ZM8.4541 7.32227H11.8379L10.1426 2.66699L8.4541 7.32227ZM23.3838 6.34473C23.3838 7.30632 23.2311 8.13574 22.9258 8.83301C22.6204 9.52572 22.1921 10.068 21.6406 10.46L23.418 11.8545L22.5225 12.6816L20.4238 11.0137C20.0957 11.0957 19.7493 11.1367 19.3848 11.1367C18.6009 11.1367 17.9059 10.9453 17.2998 10.5625C16.6937 10.1751 16.222 9.62598 15.8848 8.91504C15.5521 8.19954 15.3812 7.3724 15.3721 6.43359V5.71582C15.3721 4.75879 15.5384 3.91341 15.8711 3.17969C16.2038 2.44596 16.6732 1.88542 17.2793 1.49805C17.89 1.10612 18.5872 0.910156 19.3711 0.910156C20.1732 0.910156 20.8773 1.10384 21.4834 1.49121C22.0941 1.87858 22.5635 2.43685 22.8916 3.16602C23.2197 3.89062 23.3838 4.73828 23.3838 5.70898V6.34473ZM22.0713 5.70215C22.0713 4.53092 21.8366 3.62858 21.3672 2.99512C20.9023 2.3571 20.237 2.03809 19.3711 2.03809C18.5462 2.03809 17.8945 2.35482 17.416 2.98828C16.9421 3.61719 16.6982 4.49219 16.6846 5.61328V6.34473C16.6846 7.48405 16.9215 8.38184 17.3955 9.03809C17.874 9.69434 18.5371 10.0225 19.3848 10.0225C20.2324 10.0225 20.8887 9.71484 21.3535 9.09961C21.8184 8.47982 22.0576 7.59342 22.0713 6.44043V5.70215Z" fill="white"/>
</svg>
