<svg width="50" height="14" viewBox="0 0 50 14" fill="none" xmlns="http://www.w3.org/2000/svg">
<path opacity="0.8" d="M1.46777 7.10352V11H0.155273V1.04688H3.82617C4.91536 1.04688 5.76758 1.32487 6.38281 1.88086C7.0026 2.43685 7.3125 3.17285 7.3125 4.08887C7.3125 5.05501 7.00944 5.80013 6.40332 6.32422C5.80176 6.84375 4.93815 7.10352 3.8125 7.10352H1.46777ZM1.46777 6.03027H3.82617C4.52799 6.03027 5.06576 5.86621 5.43945 5.53809C5.81315 5.2054 6 4.72689 6 4.10254C6 3.51009 5.81315 3.03613 5.43945 2.68066C5.06576 2.3252 4.55306 2.14062 3.90137 2.12695H1.46777V6.03027ZM12.3643 4.73828C12.1729 4.70638 11.9655 4.69043 11.7422 4.69043C10.9128 4.69043 10.3499 5.04362 10.0537 5.75V11H8.78906V3.60352H10.0195L10.04 4.45801C10.4548 3.7972 11.0426 3.4668 11.8037 3.4668C12.0498 3.4668 12.2367 3.4987 12.3643 3.5625V4.73828ZM13.0615 7.2334C13.0615 6.50879 13.2028 5.8571 13.4854 5.27832C13.7725 4.69954 14.1689 4.25293 14.6748 3.93848C15.1852 3.62402 15.7663 3.4668 16.418 3.4668C17.4251 3.4668 18.2386 3.81543 18.8584 4.5127C19.4827 5.20996 19.7949 6.13737 19.7949 7.29492V7.38379C19.7949 8.10384 19.6559 8.75098 19.3779 9.3252C19.1045 9.89486 18.7103 10.3392 18.1953 10.6582C17.6849 10.9772 17.097 11.1367 16.4316 11.1367C15.429 11.1367 14.6156 10.7881 13.9912 10.0908C13.3714 9.39355 13.0615 8.4707 13.0615 7.32227V7.2334ZM14.333 7.38379C14.333 8.2041 14.5221 8.86263 14.9004 9.35938C15.2832 9.85612 15.7936 10.1045 16.4316 10.1045C17.0742 10.1045 17.5846 9.85384 17.9629 9.35254C18.3411 8.84668 18.5303 8.1403 18.5303 7.2334C18.5303 6.4222 18.3366 5.76595 17.9492 5.26465C17.5664 4.75879 17.056 4.50586 16.418 4.50586C15.7936 4.50586 15.29 4.75423 14.9072 5.25098C14.5244 5.74772 14.333 6.45866 14.333 7.38379ZM22.6865 3.60352V11.8545C22.6865 13.2764 22.0417 13.9873 20.752 13.9873C20.474 13.9873 20.2165 13.9463 19.9795 13.8643V12.8525C20.1253 12.889 20.3167 12.9072 20.5537 12.9072C20.8363 12.9072 21.0505 12.8298 21.1963 12.6748C21.3467 12.5244 21.4219 12.2601 21.4219 11.8818V3.60352H22.6865ZM21.292 1.6416C21.292 1.44108 21.3535 1.27018 21.4766 1.12891C21.6042 0.983073 21.7887 0.910156 22.0303 0.910156C22.2764 0.910156 22.4632 0.980794 22.5908 1.12207C22.7184 1.26335 22.7822 1.43652 22.7822 1.6416C22.7822 1.84668 22.7184 2.01758 22.5908 2.1543C22.4632 2.29102 22.2764 2.35938 22.0303 2.35938C21.7842 2.35938 21.5996 2.29102 21.4766 2.1543C21.3535 2.01758 21.292 1.84668 21.292 1.6416ZM27.7998 11.1367C26.7972 11.1367 25.9814 10.8086 25.3525 10.1523C24.7236 9.49154 24.4092 8.6097 24.4092 7.50684V7.27441C24.4092 6.54069 24.5482 5.88672 24.8262 5.3125C25.1087 4.73372 25.5007 4.28255 26.002 3.95898C26.5078 3.63086 27.0547 3.4668 27.6426 3.4668C28.6042 3.4668 29.3516 3.78353 29.8848 4.41699C30.418 5.05046 30.6846 5.95736 30.6846 7.1377V7.66406H25.6738C25.6921 8.39323 25.904 8.9834 26.3096 9.43457C26.7197 9.88118 27.2393 10.1045 27.8682 10.1045C28.3148 10.1045 28.693 10.0133 29.0029 9.83105C29.3128 9.64876 29.584 9.40723 29.8164 9.10645L30.5889 9.70801C29.9691 10.6605 29.0394 11.1367 27.7998 11.1367ZM27.6426 4.50586C27.1322 4.50586 26.7038 4.69271 26.3574 5.06641C26.0111 5.43555 25.7969 5.95508 25.7148 6.625H29.4199V6.5293C29.3835 5.88672 29.2103 5.38997 28.9004 5.03906C28.5905 4.68359 28.1712 4.50586 27.6426 4.50586ZM35.1211 10.1045C35.5723 10.1045 35.9665 9.96777 36.3037 9.69434C36.641 9.4209 36.8278 9.0791 36.8643 8.66895H38.0605C38.0378 9.09277 37.8919 9.49609 37.623 9.87891C37.3542 10.2617 36.9941 10.5671 36.543 10.7949C36.0964 11.0228 35.6224 11.1367 35.1211 11.1367C34.1139 11.1367 33.3118 10.8018 32.7148 10.1318C32.1224 9.45736 31.8262 8.53678 31.8262 7.37012V7.1582C31.8262 6.43815 31.9583 5.79785 32.2227 5.2373C32.487 4.67676 32.8652 4.24154 33.3574 3.93164C33.8542 3.62174 34.4398 3.4668 35.1143 3.4668C35.9437 3.4668 36.6318 3.71517 37.1787 4.21191C37.7301 4.70866 38.0241 5.35352 38.0605 6.14648H36.8643C36.8278 5.66797 36.6455 5.27604 36.3174 4.9707C35.9938 4.66081 35.5928 4.50586 35.1143 4.50586C34.4717 4.50586 33.9727 4.73828 33.6172 5.20312C33.2663 5.66341 33.0908 6.33105 33.0908 7.20605V7.44531C33.0908 8.29753 33.2663 8.95378 33.6172 9.41406C33.9681 9.87435 34.4694 10.1045 35.1211 10.1045ZM41.1982 1.8125V3.60352H42.5791V4.58105H41.1982V9.16797C41.1982 9.46419 41.2598 9.6875 41.3828 9.83789C41.5059 9.98372 41.7155 10.0566 42.0117 10.0566C42.1576 10.0566 42.3581 10.0293 42.6133 9.97461V11C42.2806 11.0911 41.957 11.1367 41.6426 11.1367C41.0775 11.1367 40.6514 10.9658 40.3643 10.624C40.0771 10.2822 39.9336 9.79688 39.9336 9.16797V4.58105H38.5869V3.60352H39.9336V1.8125H41.1982ZM48.3691 9.03809C48.3691 8.69629 48.2393 8.43197 47.9795 8.24512C47.7243 8.05371 47.2754 7.88965 46.6328 7.75293C45.9948 7.61621 45.4867 7.45215 45.1084 7.26074C44.7347 7.06934 44.4567 6.84147 44.2744 6.57715C44.0967 6.31283 44.0078 5.99837 44.0078 5.63379C44.0078 5.02767 44.263 4.51497 44.7734 4.0957C45.2884 3.67643 45.9447 3.4668 46.7422 3.4668C47.5807 3.4668 48.2598 3.68327 48.7793 4.11621C49.3034 4.54915 49.5654 5.10286 49.5654 5.77734H48.2939C48.2939 5.43099 48.1458 5.13249 47.8496 4.88184C47.5579 4.63118 47.1888 4.50586 46.7422 4.50586C46.2819 4.50586 45.9219 4.60612 45.6621 4.80664C45.4023 5.00716 45.2725 5.26921 45.2725 5.59277C45.2725 5.89811 45.3932 6.12826 45.6348 6.2832C45.8763 6.43815 46.3115 6.58626 46.9404 6.72754C47.5739 6.86882 48.0866 7.03743 48.4785 7.2334C48.8704 7.42936 49.1598 7.66634 49.3467 7.94434C49.5381 8.21777 49.6338 8.55273 49.6338 8.94922C49.6338 9.61003 49.3695 10.141 48.8408 10.542C48.3122 10.9385 47.6263 11.1367 46.7832 11.1367C46.1908 11.1367 45.6667 11.0319 45.2109 10.8223C44.7552 10.6126 44.3975 10.321 44.1377 9.94727C43.8825 9.56901 43.7549 9.16113 43.7549 8.72363H45.0195C45.0423 9.14746 45.2109 9.4847 45.5254 9.73535C45.8444 9.98145 46.2637 10.1045 46.7832 10.1045C47.2617 10.1045 47.6445 10.0088 47.9316 9.81738C48.2233 9.62142 48.3691 9.36165 48.3691 9.03809Z" fill="white"/>
</svg>
